<?xml version="1.0" standalone="no"?>
<!DOCTYPE svg PUBLIC "-//W3C//DTD SVG 20010904//EN"
 "http://www.w3.org/TR/2001/REC-SVG-20010904/DTD/svg10.dtd">
<svg version="1.0" xmlns="http://www.w3.org/2000/svg"
 width="744.000000pt" height="194.000000pt" viewBox="0 0 744.000000 194.000000"
 preserveAspectRatio="xMidYMid meet">

<g transform="translate(0.000000,194.000000) scale(0.100000,-0.100000)"
fill="#000000" stroke="none">
<path d="M528 1430 c-120 -30 -235 -128 -290 -245 -30 -65 -33 -78 -33 -170 0
-92 3 -105 33 -170 45 -94 123 -173 216 -217 66 -30 79 -33 171 -33 92 0 105
3 171 33 93 44 171 123 216 217 30 65 33 78 33 170 0 92 -3 105 -33 170 -71
150 -208 244 -365 251 -45 2 -99 -1 -119 -6z m167 -201 c53 -15 129 -91 144
-144 25 -90 7 -162 -58 -226 -92 -93 -220 -93 -312 0 -91 90 -93 216 -6 308
63 66 141 87 232 62z"/>
<path d="M7140 728 c-68 -47 -88 -131 -47 -202 75 -132 277 -78 277 73 0 119
-134 194 -230 129z m132 -75 c24 -22 24 -77 -2 -103 -42 -42 -120 -8 -120 52
0 58 78 91 122 51z"/>
</g>
</svg>
